#!OML:ASF \\sashay\E\Suitcase\Project 1\Capture day 1\Session 1\Male1.ASF
:FULLY-SPECIFIED
:DEGREES
679
root -1.48942 17.5338 9.73588 5.31601 3.06316 -1.85125
lowerback 3.33248 -2.39485 4.01519
upperback -0.776889 -2.93768 3.07695
thorax -2.70986 -1.50237 1.08736
lowerneck -19.158 -3.24262 -4.91236
upperneck 19.3355 -1.07597 -8.50832
head 9.30814 -1.84917 -2.28785
rclavicle -3.73715e-014 1.82882e-014
rhumerus -27.1316 -30.6833 -64.979
rradius 11.8457
rwrist 4.06831
rhand -14.3309 18.2711
rfingers 7.12502
rthumb 11.81 -11.3759
lclavicle -3.73715e-014 1.82882e-014
lhumerus -34.6852 -7.67406 90.5178
lradius 38.7099
lwrist -2.58893
lhand 0.0532737 44.9063
lfingers 7.12502
lthumb 25.6414 73.1997
rfemur -6.56006 -0.449572 24.0476
rtibia 15.774
rfoot -12.2063 -19.0113
rtoes 15.273
lfemur -7.3238 -4.89262 -9.63023
ltibia 15.1533
lfoot -10.8707 4.80708
ltoes -8.50081
680
root -1.4827 17.5338 9.71994 5.32666 3.06932 -1.83712
lowerback 3.21178 -2.44348 4.09097
upperback -0.747998 -3.00952 3.02961
thorax -2.61954 -1.53859 0.994083
lowerneck -19.1866 -3.16709 -4.61462
upperneck 19.2854 -0.996487 -8.79418
head 9.2934 -1.82112 -2.42407
rclavicle 1.22253e-014 -1.51076e-014
rhumerus -26.0747 -30.4536 -65.5472
rradius 11.6803
rwrist 4.01949
rhand -14.1543 18.457
rfingers 7.12502
rthumb 11.9803 -11.1802
lclavicle 1.22253e-014 -1.51076e-014
lhumerus -34.6635 -7.49797 90.3434
lradius 38.5452
lwrist -2.48888
lhand 0.272024 45.3538
lfingers 7.12502
lthumb 25.8509 73.6169
rfemur -6.53266 -0.984901 23.9826
rtibia 15.6117
rfoot -11.6625 -18.5374
rtoes 14.0903
lfemur -7.48035 -4.90861 -9.72379
ltibia 15.4013
lfoot -10.9458 4.84995
ltoes -4.90749
681
root -1.50404 17.5303 9.70834 5.21097 2.95504 -2.04442
lowerback 3.262 -2.38114 4.01775
upperback -0.801324 -2.92225 3.1006
thorax -2.69417 -1.49469 1.10679
lowerneck -18.8953 -3.1612 -4.41937
upperneck 19.2459 -1.0214 -9.02856
head 9.22296 -1.8371 -2.53208
rclavicle 4.57205e-015 7.15625e-015
rhumerus -25.3573 -29.4992 -66.1865
rradius 11.7991
rwrist 2.86168
rhand -13.8951 18.5947
rfingers 7.12502
rthumb 12.2302 -11.0277
lclavicle 4.57205e-015 7.15625e-015
lhumerus -34.8336 -7.16794 90.1951
lradius 38.3623
lwrist -2.92759
lhand 0.279928 45.1064
lfingers 7.12502
lthumb 25.8585 73.3684
rfemur -6.46195 -0.346668 24.3052
rtibia 15.5325
rfoot -11.9884 -18.9634
rtoes 14.7779
lfemur -7.50683 -5.02461 -9.45437
ltibia 15.6098
lfoot -9.90062 4.87683
ltoes -4.37517
682
root -1.50797 17.527 9.69741 5.16001 2.82211 -2.395
lowerback 3.27769 -2.29479 4.34487
upperback -0.865847 -2.78646 3.18119
thorax -2.78038 -1.43291 1.00323
lowerneck -18.7587 -3.18943 -4.31815
upperneck 19.2808 -1.05065 -9.24106
head 9.20825 -1.86568 -2.62395
rclavicle -9.24349e-015 1.59028e-015
rhumerus -24.9845 -29.9704 -66.2184
rradius 12.0697
rwrist 3.30658
rhand -13.6167 18.6061
rfingers 7.12502
rthumb 12.4987 -11.0001
lclavicle -9.24349e-015 1.59028e-015
lhumerus -35.0338 -6.70887 90.0617
lradius 38.3552
lwrist -3.36547
lhand 0.46087 44.972
lfingers 7.12502
lthumb 26.0317 73.2086
rfemur -6.35333 -0.153394 24.6679
rtibia 15.3889
rfoot -11.8439 -18.9351
rtoes 15.3984
lfemur -7.55339 -4.90454 -9.06967
ltibia 15.8012
lfoot -10.6028 5.12649
ltoes -4.6484
683
root -1.5085 17.5304 9.67825 5.16629 2.91015 -2.19748
lowerback 3.313 -2.31771 4.19835
upperback -0.964908 -2.81803 3.11568
thorax -2.89907 -1.44887 1.02379
lowerneck -18.5495 -3.19471 -4.25712
upperneck 19.2561 -1.05394 -9.42615
head 9.16089 -1.87803 -2.69253
rclavicle -1.68967e-015 -3.97569e-015
rhumerus -24.3801 -29.7477 -66.5694
rradius 12.1882
rwrist 3.09932
rhand -13.6839 19.395
rfingers 7.12502
rthumb 12.4339 -10.2152
lclavicle -1.68967e-015 -3.97569e-015
lhumerus -35.1348 -6.48079 90.0049
lradius 38.1137
lwrist -3.4317
lhand 0.457065 44.9823
lfingers 7.12502
lthumb 26.0281 73.2194
rfemur -6.32628 -0.59378 24.4421
rtibia 15.1884
rfoot -11.6968 -18.5268
rtoes 15.377
lfemur -7.73311 -4.87709 -9.32086
ltibia 15.9719
lfoot -10.3929 5.23991
ltoes -4.38156
684
root -1.51206 17.5287 9.66712 5.07522 2.96868 -2.55903
lowerback 3.3437 -2.31731 4.54266
upperback -1.06446 -2.7928 3.17902
thorax -3.03321 -1.44401 0.901495
lowerneck -18.1713 -3.18489 -4.01755
upperneck 19.2024 -1.0879 -9.68384
head 9.06794 -1.89429 -2.81358
rclavicle 1.2424e-014 -1.98785e-014
rhumerus -23.9852 -29.0468 -67.041
rradius 12.6365
rwrist 2.37556
rhand -13.7055 19.568
rfingers 7.12502
rthumb 12.413 -10.0434
lclavicle 1.2424e-014 -1.98785e-014
lhumerus -35.2796 -6.54445 89.9588
lradius 37.8161
lwrist -3.41215
lhand 0.410021 44.9273
lfingers 7.12502
lthumb 25.983 73.171
rfemur -6.23998 -0.721442 24.8572
rtibia 15.0769
rfoot -11.49 -18.4337
rtoes 15.1398
lfemur -7.74087 -5.02706 -8.93763
ltibia 16.036
lfoot -10.4411 5.42928
ltoes -4.88074
685
root -1.52374 17.5301 9.65687 5.06479 2.97892 -2.72801
lowerback 3.37377 -2.32327 4.62648
upperback -1.19232 -2.78665 3.23032
thorax -3.18425 -1.445 0.913318
lowerneck -17.9494 -3.16909 -3.93087
upperneck 19.2249 -1.06477 -9.87296
head 9.03499 -1.89407 -2.88524
rclavicle -4.02539e-015 -1.51076e-014
rhumerus -23.4222 -29.4307 -67.0957
rradius 12.5646
rwrist 2.99243
rhand -13.1559 19.2325
rfingers 7.12502
rthumb 12.9429 -10.3461
lclavicle -4.02539e-015 -1.51076e-014
lhumerus -35.2899 -6.3306 89.898
lradius 37.3246
lwrist -3.79167
lhand 0.28725 44.8085
lfingers 7.12502
lthumb 25.8655 73.0694
rfemur -6.21207 -0.535677 25.0571
rtibia 14.9716
rfoot -11.7223 -18.4851
rtoes 16.1312
lfemur -7.81208 -4.89041 -8.74446
ltibia 16.0599
lfoot -10.3828 5.47391
ltoes -4.57281
